<svg id="visual" viewBox="0 0 960 540" width="960" height="540" xmlns="http://www.w3.org/2000/svg" xmlns:xlink="http://www.w3.org/1999/xlink" version="1.1"><rect x="0" y="0" width="960" height="540" fill="#ffffff"></rect><defs><linearGradient id="grad1_0" x1="43.8%" y1="0%" x2="100%" y2="100%"><stop offset="14.444444444444446%" stop-color="#ffffff" stop-opacity="1"></stop><stop offset="85.55555555555554%" stop-color="#ffffff" stop-opacity="1"></stop></linearGradient></defs><defs><linearGradient id="grad2_0" x1="0%" y1="0%" x2="56.3%" y2="100%"><stop offset="14.444444444444446%" stop-color="#ffffff" stop-opacity="1"></stop><stop offset="85.55555555555554%" stop-color="#ffffff" stop-opacity="1"></stop></linearGradient></defs><g transform="translate(960, 0)"><path d="M0 459C-44.4 417.7 -88.7 376.4 -149.6 361.2C-210.5 346.1 -288 357.2 -324.6 324.6C-361.1 291.9 -356.7 215.6 -372.3 154.2C-387.9 92.8 -423.5 46.4 -459 0L0 0Z" fill="#FDB90F"></path></g><g transform="translate(0, 540)"><path d="M0 -459C44.3 -422.2 88.7 -385.4 153.8 -371.4C219 -357.4 305 -366.3 324.6 -324.6C344.1 -282.8 297.2 -190.4 308.6 -127.8C319.9 -65.3 389.5 -32.6 459 0L0 0Z" fill="#FDB90F"></path></g></svg>